<svg width="24" height="24" viewBox="0 0 24 24" fill="none" xmlns="http://www.w3.org/2000/svg">
<path fill-rule="evenodd" clip-rule="evenodd" d="M12 3C7.02944 3 3 7.02944 3 12C3 16.9706 7.02944 21 12 21C16.9706 21 21 16.9706 21 12C21 7.02944 16.9706 3 12 3ZM1 12C1 5.92487 5.92487 1 12 1C18.0751 1 23 5.92487 23 12C23 18.0751 18.0751 23 12 23C5.92487 23 1 18.0751 1 12ZM16.9471 7.05294C17.2149 7.32078 17.3084 7.71694 17.1886 8.07628L15.0686 14.4363C14.9691 14.7349 14.7348 14.9692 14.4362 15.0687L8.07619 17.1887C7.71685 17.3085 7.32068 17.215 7.05285 16.9472C6.78502 16.6793 6.6915 16.2832 6.81128 15.9238L8.93127 9.56382C9.03081 9.26522 9.26513 9.0309 9.56373 8.93137L15.9237 6.81137C16.2831 6.69159 16.6792 6.78511 16.9471 7.05294ZM10.6705 10.6706L9.3411 14.6589L13.3294 13.3295L14.6588 9.34119L10.6705 10.6706Z" fill="black"/>
</svg>
