<svg width="24" height="24" viewBox="0 0 24 24" fill="none" xmlns="http://www.w3.org/2000/svg">
<path fill-rule="evenodd" clip-rule="evenodd" d="M7.00003 2.99997C7.00005 1.89541 7.89547 1 9.00003 1H15C16.1046 1 17 1.89541 17 2.99997H18C18.7956 2.99997 19.5587 3.31604 20.1213 3.87865C20.6839 4.44126 21 5.20432 21 5.99997V20C21 20.7956 20.6839 21.5587 20.1213 22.1213C19.5587 22.6839 18.7956 23 18 23H6C5.20435 23 4.44129 22.6839 3.87868 22.1213C3.31607 21.5587 3 20.7956 3 20V5.99997C3 5.20432 3.31607 4.44126 3.87868 3.87865C4.44129 3.31604 5.20435 2.99997 6 2.99997H7.00003ZM7.00003 4.99997H6C5.73478 4.99997 5.48043 5.10532 5.29289 5.29286C5.10536 5.4804 5 5.73475 5 5.99997V20C5 20.2652 5.10536 20.5195 5.29289 20.7071C5.48043 20.8946 5.73478 21 6 21H18C18.2652 21 18.5196 20.8946 18.7071 20.7071C18.8946 20.5195 19 20.2652 19 20V5.99997C19 5.73475 18.8946 5.4804 18.7071 5.29286C18.5196 5.10532 18.2652 4.99997 18 4.99997H17V5C17 6.10457 16.1046 7 15 7H9.00003C7.89546 7 7.00003 6.10457 7.00003 5V4.99997ZM15 3.99183C15 3.99454 15 3.99725 15 3.99997C15 4.00268 15 4.0054 15 4.00811V5H9.00003V3H15V3.99183Z" fill="white"/>
</svg>
